<?xml version="1.0" encoding="UTF-8" standalone="no"?>
<!DOCTYPE svg PUBLIC "-//W3C//DTD SVG 1.1//EN"
 "http://www.w3.org/Graphics/SVG/1.1/DTD/svg11.dtd">
<!-- Generated by graphviz version 2.38.0 (20140413.2041)
 -->
<!-- Title: IPlugVST3 Pages: 1 -->
<svg width="560pt" height="142pt"
 viewBox="0.00 0.00 560.00 142.00" xmlns="http://www.w3.org/2000/svg" xmlns:xlink="http://www.w3.org/1999/xlink">
<g id="graph0" class="graph" transform="scale(1 1) rotate(0) translate(4 138)">
<title>IPlugVST3</title>
<polygon fill="white" stroke="none" points="-4,4 -4,-138 556,-138 556,4 -4,4"/>
<!-- Node1 -->
<g id="node1" class="node"><title>Node1</title>
<polygon fill="#bfbfbf" stroke="black" points="488,-57.5 488,-76.5 552,-76.5 552,-57.5 488,-57.5"/>
<text text-anchor="middle" x="520" y="-64.5" font-family="Helvetica,sans-Serif" font-size="10.00">IPlugVST3</text>
</g>
<!-- Node2 -->
<g id="node2" class="node"><title>Node2</title>
<g id="a_node2"><a xlink:href="class_i_plug_a_p_i_base.html" target="_top" xlink:title="The base class of an IPlug plug&#45;in, which interacts with the different plug&#45;in APIs. ">
<polygon fill="white" stroke="black" points="337.5,-114.5 337.5,-133.5 415.5,-133.5 415.5,-114.5 337.5,-114.5"/>
<text text-anchor="middle" x="376.5" y="-121.5" font-family="Helvetica,sans-Serif" font-size="10.00">IPlugAPIBase</text>
</a>
</g>
</g>
<!-- Node2&#45;&gt;Node1 -->
<g id="edge1" class="edge"><title>Node2&#45;&gt;Node1</title>
<path fill="none" stroke="midnightblue" d="M425.571,-113.748C434.493,-111.283 443.634,-108.369 452,-105 471.103,-97.3075 491.469,-85.1187 504.665,-76.6269"/>
<polygon fill="midnightblue" stroke="midnightblue" points="424.434,-110.428 415.642,-116.34 426.202,-117.2 424.434,-110.428"/>
</g>
<!-- Node3 -->
<g id="node3" class="node"><title>Node3</title>
<g id="a_node3"><a xlink:href="class_i_plugin_base.html" target="_top" xlink:title="Base class that contains plug&#45;in info and state manipulation methods. ">
<polygon fill="white" stroke="black" points="186.5,-114.5 186.5,-133.5 257.5,-133.5 257.5,-114.5 186.5,-114.5"/>
<text text-anchor="middle" x="222" y="-121.5" font-family="Helvetica,sans-Serif" font-size="10.00">IPluginBase</text>
</a>
</g>
</g>
<!-- Node3&#45;&gt;Node2 -->
<g id="edge2" class="edge"><title>Node3&#45;&gt;Node2</title>
<path fill="none" stroke="midnightblue" d="M267.734,-124C289.811,-124 316.165,-124 337.285,-124"/>
<polygon fill="midnightblue" stroke="midnightblue" points="267.605,-120.5 257.605,-124 267.605,-127.5 267.605,-120.5"/>
</g>
<!-- Node4 -->
<g id="node4" class="node"><title>Node4</title>
<polygon fill="white" stroke="#bfbfbf" points="0,-114.5 0,-133.5 143,-133.5 143,-114.5 0,-114.5"/>
<text text-anchor="middle" x="71.5" y="-121.5" font-family="Helvetica,sans-Serif" font-size="10.00">EDITOR_DELEGATE_CLASS</text>
</g>
<!-- Node4&#45;&gt;Node3 -->
<g id="edge3" class="edge"><title>Node4&#45;&gt;Node3</title>
<path fill="none" stroke="midnightblue" d="M153.426,-124C164.952,-124 176.26,-124 186.23,-124"/>
<polygon fill="midnightblue" stroke="midnightblue" points="153.271,-120.5 143.271,-124 153.271,-127.5 153.271,-120.5"/>
</g>
<!-- Node5 -->
<g id="node5" class="node"><title>Node5</title>
<g id="a_node5"><a xlink:href="class_i_plug_v_s_t3_processor_base.html" target="_top" xlink:title="Shared VST3 processor code. ">
<polygon fill="white" stroke="black" points="309,-76.5 309,-95.5 444,-95.5 444,-76.5 309,-76.5"/>
<text text-anchor="middle" x="376.5" y="-83.5" font-family="Helvetica,sans-Serif" font-size="10.00">IPlugVST3ProcessorBase</text>
</a>
</g>
</g>
<!-- Node5&#45;&gt;Node1 -->
<g id="edge4" class="edge"><title>Node5&#45;&gt;Node1</title>
<path fill="none" stroke="midnightblue" d="M454.086,-75.7163C465.941,-74.1246 477.575,-72.5624 487.646,-71.2101"/>
<polygon fill="midnightblue" stroke="midnightblue" points="453.552,-72.2566 444.107,-77.0564 454.483,-79.1943 453.552,-72.2566"/>
</g>
<!-- Node6 -->
<g id="node6" class="node"><title>Node6</title>
<g id="a_node6"><a xlink:href="class_i_plug_processor.html" target="_top" xlink:title="The base class for IPlug Audio Processing. ">
<polygon fill="white" stroke="black" points="179,-76.5 179,-95.5 265,-95.5 265,-76.5 179,-76.5"/>
<text text-anchor="middle" x="222" y="-83.5" font-family="Helvetica,sans-Serif" font-size="10.00">IPlugProcessor</text>
</a>
</g>
</g>
<!-- Node6&#45;&gt;Node5 -->
<g id="edge5" class="edge"><title>Node6&#45;&gt;Node5</title>
<path fill="none" stroke="midnightblue" d="M275.227,-86C286.082,-86 297.66,-86 308.949,-86"/>
<polygon fill="midnightblue" stroke="midnightblue" points="275.075,-82.5001 265.075,-86 275.075,-89.5001 275.075,-82.5001"/>
</g>
<!-- Node7 -->
<g id="node7" class="node"><title>Node7</title>
<g id="a_node7"><a xlink:href="class_i_plug_v_s_t3_controller_base.html" target="_top" xlink:title="Shared VST3 controller code. ">
<polygon fill="white" stroke="black" points="309.5,-38.5 309.5,-57.5 443.5,-57.5 443.5,-38.5 309.5,-38.5"/>
<text text-anchor="middle" x="376.5" y="-45.5" font-family="Helvetica,sans-Serif" font-size="10.00">IPlugVST3ControllerBase</text>
</a>
</g>
</g>
<!-- Node7&#45;&gt;Node1 -->
<g id="edge6" class="edge"><title>Node7&#45;&gt;Node1</title>
<path fill="none" stroke="midnightblue" d="M453.805,-58.2459C465.819,-59.8591 477.619,-61.4435 487.806,-62.8114"/>
<polygon fill="midnightblue" stroke="midnightblue" points="454.07,-54.7501 443.693,-56.8881 453.138,-61.6878 454.07,-54.7501"/>
</g>
<!-- Node8 -->
<g id="node8" class="node"><title>Node8</title>
<polygon fill="white" stroke="#bfbfbf" points="301,-0.5 301,-19.5 452,-19.5 452,-0.5 301,-0.5"/>
<text text-anchor="middle" x="376.5" y="-7.5" font-family="Helvetica,sans-Serif" font-size="10.00">Vst::SingleComponentEffect</text>
</g>
<!-- Node8&#45;&gt;Node1 -->
<g id="edge7" class="edge"><title>Node8&#45;&gt;Node1</title>
<path fill="none" stroke="midnightblue" d="M432.67,-22.2997C439.269,-24.2883 445.844,-26.521 452,-29 471.103,-36.6925 491.469,-48.8813 504.665,-57.3731"/>
<polygon fill="midnightblue" stroke="midnightblue" points="433.607,-18.9273 423.031,-19.5605 431.693,-25.6607 433.607,-18.9273"/>
</g>
</g>
</svg>
